<svg id="Capa_1" enable-background="new 0 0 512 512" height="512" viewBox="0 0 512 512" width="512" xmlns="http://www.w3.org/2000/svg"><circle cx="200.404" cy="34.455" r="7.5"/><path d="m169.017 246.863h49.656c2.676 10.901 12.531 19.011 24.245 19.011s21.569-8.111 24.245-19.011h21.962c4.143 0 7.5-3.358 7.5-7.5v-29.446c0-9.283-7.254-17.065-16.514-17.716l-41.657-2.933-7.335-17.36h.001c-3.711-8.783-12.271-14.458-21.806-14.458-15.208 0-36.405 0-52.868 0-9.587 0-18.164 5.718-21.851 14.568l-7.294 17.508-19.925 2.498c-7.779.976-13.646 7.625-13.646 15.465v31.874c0 4.142 3.357 7.5 7.5 7.5h19.296c2.676 10.901 12.531 19.011 24.245 19.011s21.57-8.111 24.246-19.011zm73.902 4.011c-5.493 0-9.962-4.469-9.962-9.962 0-5.484 4.523-9.962 9.962-9.962 5.43 0 9.962 4.466 9.962 9.962 0 5.493-4.469 9.962-9.962 9.962zm-25.616-73.128 4.725 11.18h-38.341v-16.477h25.629c3.492 0 6.628 2.079 7.987 5.297zm-68.861.04c1.351-3.242 4.493-5.337 8.005-5.337h12.239v16.477h-24.885zm-39.711 29.703c0-.295.221-.545.513-.582l23.776-2.981h100.054l45.985 3.237c1.439.101 2.566 1.311 2.566 2.753v21.946h-15.419c-3.61-9.42-12.672-15.913-23.288-15.913s-19.678 6.493-23.288 15.913h-51.569c-3.612-9.42-12.673-15.913-23.289-15.913s-19.678 6.493-23.288 15.913h-12.753zm36.041 43.385c-5.493 0-9.962-4.469-9.962-9.962 0-5.484 4.523-9.962 9.962-9.962 5.42 0 9.962 4.458 9.962 9.962 0 5.493-4.469 9.962-9.962 9.962z"/><path d="m305.343 160.684-15.523-26.887c-2.327-4.033-6.497-6.44-11.154-6.44-4.656 0-8.826 2.408-11.153 6.44l-15.523 26.887c-2.328 4.032-2.329 8.847-.001 12.88s6.498 6.44 11.154 6.44h31.048c4.656 0 8.826-2.408 11.154-6.44s2.326-8.849-.002-12.88zm-38.529 4.319 11.852-20.526 11.851 20.526z"/><path d="m140.843 275.874h-32.823c-4.143 0-7.5 3.358-7.5 7.5v32.822c0 4.142 3.357 7.5 7.5 7.5h32.822c4.143 0 7.5-3.358 7.5-7.5v-32.822c.001-4.142-3.357-7.5-7.499-7.5zm-7.5 32.822h-17.823v-17.822h17.822v17.822z"/><path d="m140.843 333.696h-32.823c-4.143 0-7.5 3.358-7.5 7.5v32.822c0 4.142 3.357 7.5 7.5 7.5h32.822c4.143 0 7.5-3.358 7.5-7.5v-32.822c.001-4.142-3.357-7.5-7.499-7.5zm-7.5 32.822h-17.823v-17.822h17.822v17.822z"/><path d="m140.843 391.518h-32.823c-4.143 0-7.5 3.358-7.5 7.5v32.822c0 4.142 3.357 7.5 7.5 7.5h32.822c4.143 0 7.5-3.358 7.5-7.5v-32.822c.001-4.143-3.357-7.5-7.499-7.5zm-7.5 32.821h-17.823v-17.822h17.822v17.822z"/><path d="m292.787 275.874h-126.944c-4.143 0-7.5 3.358-7.5 7.5s3.357 7.5 7.5 7.5h126.944c4.143 0 7.5-3.358 7.5-7.5s-3.358-7.5-7.5-7.5z"/><path d="m165.843 315.874h88.433c4.143 0 7.5-3.358 7.5-7.5s-3.357-7.5-7.5-7.5h-88.433c-4.143 0-7.5 3.358-7.5 7.5s3.357 7.5 7.5 7.5z"/><path d="m292.787 333.696h-126.944c-4.143 0-7.5 3.358-7.5 7.5s3.357 7.5 7.5 7.5h126.944c4.143 0 7.5-3.358 7.5-7.5s-3.358-7.5-7.5-7.5z"/><path d="m208.787 358.696h-42.944c-4.143 0-7.5 3.358-7.5 7.5s3.357 7.5 7.5 7.5h42.944c4.143 0 7.5-3.358 7.5-7.5s-3.358-7.5-7.5-7.5z"/><path d="m487.291 203.723c-9.242-9.242-24.203-9.244-33.448 0l-18.802 18.802c-1.678-1.255-3.706-1.933-5.84-1.933-2.611 0-5.067 1.017-6.916 2.864-7.688 7.688-31.658 31.658-39.255 39.255v-198.835c0-8.49-6.907-15.398-15.397-15.398h-70.068v-2.642c0-9.585-7.798-17.383-17.384-17.383h-44.608c-3.492-16.358-18.259-28.453-35.169-28.453-16.911 0-31.679 12.096-35.168 28.454h-44.609c-9.585 0-17.383 7.798-17.383 17.383v2.642h-70.068c-8.49 0-15.398 6.908-15.398 15.398v432.726c0 8.49 6.908 15.398 15.398 15.398h334.457c8.49 0 15.397-6.908 15.397-15.398v-143.347l11.906-11.906c2.929-2.929 2.929-7.678 0-10.606-2.93-2.929-7.678-2.929-10.607 0-4.746 4.746-39.661 39.662-44.197 44.198l-24.059-24.059c1.245-1.245 84.612-84.612 85.119-85.119l24.059 24.059-15.353 15.353c-2.929 2.929-2.929 7.678 0 10.606 2.93 2.929 7.678 2.929 10.607 0l27.829-27.829 7.056 7.056-59.447 59.447c-2.929 2.929-2.929 7.678 0 10.606 2.93 2.929 7.678 2.929 10.607 0l64.75-64.75c2.929-2.929 2.929-7.678 0-10.606l-12.36-12.36 8.618-8.618c3.47-3.472 3.78-8.927.928-12.753l18.803-18.803c9.244-9.244 9.245-24.204.002-33.449zm-58.09 34.031c.1.1 25.321 25.322 24.059 24.059-6.468 6.468-10.963 10.963-17.402 17.402l-24.059-24.059zm-61.568-174.275c.219 0 .397.179.397.398v213.835l-15.509 15.509v-206.734c0-4.142-3.357-7.5-7.5-7.5h-47.457v-15.508zm-249.389-17.642c0-1.314 1.069-2.383 2.383-2.383h46.467c6.247 0 11.663-4.603 12.6-10.707 1.547-10.118 10.451-17.747 20.71-17.747 10.258 0 19.162 7.63 20.711 17.746.934 6.105 6.351 10.708 12.6 10.708h46.466c1.314 0 2.384 1.069 2.384 2.383v25.841h-115.012c-4.143 0-7.5 3.358-7.5 7.5s3.357 7.5 7.5 7.5h115.012v15.678h-164.32v-15.678h14.309c4.143 0 7.5-3.358 7.5-7.5s-3.357-7.5-7.5-7.5h-14.309v-25.841zm187.223 315.652 24.058 24.059-53.567 53.567-24.059-24.059zm-74.386 81.662c1.749-6.51 5.192-12.469 9.958-17.234l.254-.254 24.058 24.059-.254.254c-4.765 4.766-10.724 8.209-17.232 9.958l-22.946 6.164zm44.622 17.432c9.448-9.448 60.639-60.638 61.818-61.817v67.726h-68.843c2.499-1.76 4.852-3.736 7.025-5.909zm24.46-115.004c-.006.006-.013.013-.019.02l-45.919 45.919h-88.382c-4.143 0-7.5 3.358-7.5 7.5s3.357 7.5 7.5 7.5h73.382c-9.345 9.345-9.146 9.131-9.962 10h-63.42c-4.143 0-7.5 3.358-7.5 7.5s3.357 7.5 7.5 7.5h53.487c-1.105 2.5-2.021 5.088-2.735 7.742l-6.583 24.508c-.243.906-.395 1.817-.459 2.724h-146.266v-21.967c0-4.142-3.357-7.5-7.5-7.5s-7.5 3.358-7.5 7.5v29.467c0 4.142 3.357 7.5 7.5 7.5h289.234c4.143 0 7.5-3.358 7.5-7.5v-90.226l15.509-15.509v128.346c0 .219-.179.398-.397.398h-334.457c-.22 0-.398-.179-.398-.398v-432.727c0-.219.179-.398.398-.398h70.068v15.509h-47.457c-4.143 0-7.5 3.358-7.5 7.5v323.037c0 4.142 3.357 7.5 7.5 7.5s7.5-3.358 7.5-7.5v-315.537h39.957v12.109c0 6.209 5.052 11.26 11.261 11.26h171.799c6.209 0 11.261-5.052 11.261-11.261v-12.108h39.957v214.233zm176.52-119.014-18.729 18.73c-1.304-1.304 3.861 3.861-12.235-12.234l18.729-18.73c3.381-3.38 8.852-3.383 12.234 0 3.382 3.378 3.384 8.852.001 12.234z"/><path d="m270.654 420.359c2.929 2.929 7.677 2.929 10.607 0l29.509-29.508c2.929-2.929 2.929-7.678 0-10.606s-7.677-2.93-10.607 0l-29.509 29.508c-2.929 2.929-2.929 7.678 0 10.606z"/></svg>