<?xml version="1.0" encoding="iso-8859-1"?>
<!-- Generator: Adobe Illustrator 19.0.0, SVG Export Plug-In . SVG Version: 6.00 Build 0)  -->
<svg version="1.1" id="Capa_1" xmlns="http://www.w3.org/2000/svg" xmlns:xlink="http://www.w3.org/1999/xlink" x="0px" y="0px"
	 viewBox="0 0 502.624 502.624" style="enable-background:new 0 0 502.624 502.624;" xml:space="preserve">
<g>
	<g>
		<g>
			<rect x="349.402" y="185.825" transform="matrix(-0.7711 0.6368 -0.6368 -0.7711 775.6639 124.77)" width="32" height="32"/>
			<rect x="390.174" y="235.118" transform="matrix(-0.7711 0.6368 -0.6368 -0.7711 879.2604 186.1098)" width="32" height="32"/>
			<path d="M452.464,429.84l15.424-15.424c29.154-29.164,31.364-75.71,5.104-107.504l-23.904-28.944l-24.672,20.368l23.904,28.944
				c15.763,19.077,14.44,47.011-3.056,64.512l-53.472,53.456c-17.728,16.97-45.251,18.281-64.512,3.072L152.624,304.112
				c-13.631-11.249-15.562-31.418-4.313-45.049c0.649-0.787,1.336-1.542,2.057-2.263l106.384-106.432
				c13.189-12.456,33.979-11.862,46.435,1.326c0.287,0.304,0.569,0.614,0.845,0.93l18.48,22.4l24.672-20.368l-18.464-22.4
				c-12.143-14.76-30.263-23.298-49.376-23.264c-3.656,0.05-7.301,0.409-10.896,1.072L158.384,0L135.76,22.624l22.624,22.624
				l-22.624,22.64l-22.624-22.64L90.512,67.872l22.624,22.64l-22.64,22.624L67.888,90.512l-22.624,22.624l22.608,22.624
				l-22.624,22.624L22.624,135.76L0,158.384l110.064,110.064c-0.658,3.596-1.011,7.241-1.056,10.896
				c-0.033,19.104,8.498,37.218,23.248,49.36l174.64,144.272c31.797,26.27,78.354,24.06,107.52-5.104l15.424-15.408l50.16,50.16
				L502.624,480L452.464,429.84z M127.744,234.112c-1.152,1.152-2,2.496-3.056,3.712l-56.816-56.816L181.008,67.872l56.816,56.816
				c-1.216,1.056-2.56,1.904-3.712,3.056L127.744,234.112z"/>
		</g>
	</g>
</g>
<g>
</g>
<g>
</g>
<g>
</g>
<g>
</g>
<g>
</g>
<g>
</g>
<g>
</g>
<g>
</g>
<g>
</g>
<g>
</g>
<g>
</g>
<g>
</g>
<g>
</g>
<g>
</g>
<g>
</g>
</svg>
