<?xml version="1.0" encoding="iso-8859-1"?>
<!-- Generator: Adobe Illustrator 19.0.0, SVG Export Plug-In . SVG Version: 6.00 Build 0)  -->
<svg version="1.1" id="Capa_1" xmlns="http://www.w3.org/2000/svg" xmlns:xlink="http://www.w3.org/1999/xlink" x="0px" y="0px"
	 viewBox="0 0 512.052 512.052" style="enable-background:new 0 0 512.052 512.052;" xml:space="preserve">
<g>
	<g>
		<g>
			<rect x="256.01" y="448" width="32" height="64"/>
			<path d="M192.01,437.776c-30.541,13.664-65.459,13.664-96,0V272c0.001-13.777,5.922-26.889,16.256-36l-21.168-24
				c-17.221,15.186-27.087,37.039-27.088,60v6.912c-39.745,23.594-64.078,66.42-64,112.64V512h32V391.552
				c-0.086-27.834,11.525-54.425,32-73.28v139.616l8.848,4.432c22.004,11.389,46.377,17.445,71.152,17.68
				c24.769-0.21,49.142-6.239,71.152-17.6l8.848-4.512V384h-32V437.776z"/>
			<rect x="150.097" y="94.86" transform="matrix(0.7416 0.6708 -0.6708 0.7416 117.2805 -82.7801)" width="32" height="31.984"/>
			<rect x="197.548" y="137.743" transform="matrix(0.7413 0.6712 -0.6712 0.7413 158.449 -103.5579)" width="32" height="32"/>
			<path d="M497.786,397.936l-0.048-0.064L390.794,255.264l-69.36-69.664l-23.184,23.248l-38.4-34.704l-21.44,23.712l37.2,33.6
				l-44.096,44.08L58.234,84.064C45.427,69.905,36.89,52.409,33.61,33.6c18.807,3.286,36.301,11.822,50.464,24.624l35.696,32.272
				l21.472-23.712L105.61,34.496C81.069,12.26,49.126-0.038,16.01,0h-16v16c-0.038,33.116,12.26,65.059,34.496,89.6l174.4,192.704
				l-23.168,23.184l67.872,67.872l144.32,108.432c31.52,23.629,76.227,17.232,99.856-14.288
				C516.794,458.148,516.794,423.292,497.786,397.936z M468.49,468.48c-13.875,13.773-35.736,15.33-51.424,3.664l-141.68-106.288
				l-44.448-44.432l90.496-90.496l44.448,44.448l106.256,141.696C483.8,432.753,482.249,454.603,468.49,468.48z"/>
		</g>
	</g>
</g>
<g>
</g>
<g>
</g>
<g>
</g>
<g>
</g>
<g>
</g>
<g>
</g>
<g>
</g>
<g>
</g>
<g>
</g>
<g>
</g>
<g>
</g>
<g>
</g>
<g>
</g>
<g>
</g>
<g>
</g>
</svg>
