<?xml version="1.0" encoding="iso-8859-1"?>
<!-- Generator: Adobe Illustrator 17.1.0, SVG Export Plug-In . SVG Version: 6.00 Build 0)  -->
<!DOCTYPE svg PUBLIC "-//W3C//DTD SVG 1.1//EN" "http://www.w3.org/Graphics/SVG/1.1/DTD/svg11.dtd">
<svg version="1.1" id="Capa_1" xmlns="http://www.w3.org/2000/svg" xmlns:xlink="http://www.w3.org/1999/xlink" x="0px" y="0px"
	 viewBox="0 0 390.445 390.445" style="enable-background:new 0 0 390.445 390.445;" xml:space="preserve">
<path d="M180.33,175.336c1.954,0,3.921-0.042,5.894-0.127v93.36c-13.591,3.22-24.882,13.563-28.921,27.322
	c-1.4,4.77,1.332,9.771,6.101,11.171c0.846,0.248,1.7,0.367,2.539,0.367c3.892,0,7.48-2.544,8.632-6.467
	c2.669-9.094,11.161-15.445,20.65-15.445s17.98,6.352,20.65,15.445c1.4,4.769,6.4,7.501,11.171,6.1c4.77-1.4,7.5-6.401,6.1-11.17
	c-4.04-13.76-15.331-24.102-28.921-27.322V175.21c0.491,0.083,0.995,0.126,1.509,0.126c75.675,0,137.241-61.565,137.241-137.24
	c0-10.219-1.135-20.43-3.375-30.348c-0.848-3.759-3.997-6.561-7.829-6.968C326.892,0.263,321.96,0,317.113,0
	c-43.996,0-85.64,21.333-111.399,57.067c-2.907,4.032-1.994,9.657,2.038,12.563c4.032,2.908,9.658,1.995,12.563-2.038
	C242.701,36.539,278.887,18,317.113,18c2.052,0,4.123,0.054,6.197,0.162c1.105,6.569,1.663,13.249,1.663,19.935
	c0,62.92-48.987,114.614-110.825,118.946l56.796-66.537c3.227-3.781,2.778-9.461-1.002-12.688s-9.461-2.778-12.688,1.002
	l-51.071,59.831c0.005-0.47,0.007-0.939,0.007-1.409C206.19,61.566,144.624,0,68.95,0c-4.847,0-9.778,0.263-14.657,0.78
	c-3.833,0.407-6.98,3.208-7.83,6.968c-2.24,9.924-3.376,20.134-3.376,30.348C43.087,113.771,104.654,175.336,180.33,175.336z
	 M62.752,18.162C64.827,18.054,66.897,18,68.95,18c65.749,0,119.24,53.491,119.24,119.241c0,2.66-0.088,5.318-0.264,7.969
	l-59.242-66.533c-3.306-3.712-8.995-4.043-12.707-0.737c-3.712,3.306-4.042,8.995-0.737,12.707l59.256,66.548
	c-63.054-3.05-113.409-55.304-113.409-119.099C61.087,31.413,61.646,24.734,62.752,18.162z M43.087,290.717
	c0-28.988,43.911-52.308,111.867-59.41c4.941-0.512,9.37,3.072,9.887,8.016s-3.072,9.37-8.016,9.887
	c-59.928,6.263-95.738,26.023-95.738,41.508c0,18.149,51.03,43.464,134.136,43.464c83.105,0,134.134-25.315,134.134-43.464
	c0-15.601-36.124-35.424-96.576-41.593c-4.945-0.505-8.544-4.922-8.04-9.867c0.505-4.945,4.918-8.55,9.867-8.04
	c68.492,6.989,112.749,30.344,112.749,59.5c0,39.922-78.383,61.464-152.134,61.464C121.472,352.182,43.087,330.64,43.087,290.717z
	 M341.461,347.601c2.763,4.132,1.652,9.721-2.48,12.484c-28.015,18.727-83.099,30.36-143.757,30.36
	c-60.663,0-115.747-11.634-143.758-30.361c-4.132-2.763-5.242-8.352-2.479-12.484c2.763-4.132,8.352-5.243,12.484-2.48
	c24.828,16.599,77.329,27.325,133.754,27.325c56.421,0,108.922-10.726,133.754-27.325C333.111,342.358,338.7,343.47,341.461,347.601
	z"/>
<g>
</g>
<g>
</g>
<g>
</g>
<g>
</g>
<g>
</g>
<g>
</g>
<g>
</g>
<g>
</g>
<g>
</g>
<g>
</g>
<g>
</g>
<g>
</g>
<g>
</g>
<g>
</g>
<g>
</g>
</svg>
