<svg xmlns="http://www.w3.org/2000/svg" height="582pt" version="1.1" viewBox="-1 0 582 582.43679" width="582pt">
<g id="surface1">
<path d="M 555.433594 75.546875 L 425.179688 164.605469 C 424.023438 163.292969 422.867188 161.925781 421.609375 160.613281 C 420.347656 159.296875 418.925781 158.144531 417.5625 156.933594 L 506.882812 26.683594 L 466.582031 4.402344 L 465.953125 4.089844 C 429.910156 -12.988281 398.226562 28.835938 397.175781 30.570312 L 298.871094 161.347656 C 288.175781 172.292969 280.617188 185.898438 276.960938 200.753906 C 237.710938 200.492188 198.71875 207.160156 161.785156 220.457031 C 99.523438 243.472656 6.261719 330.535156 0.847656 370.621094 C -2.878906 398.363281 10.515625 416.597656 25.4375 422.273438 C 29.160156 423.714844 33.109375 424.464844 37.101562 424.476562 C 50.554688 423.878906 62.824219 416.632812 69.835938 405.144531 C 71.9375 402.09375 74.25 398.257812 76.980469 393.847656 C 99.890625 356.382812 147.285156 278.988281 291.300781 273 C 293.808594 276.441406 296.566406 279.6875 299.550781 282.71875 C 302.585938 285.703125 305.835938 288.460938 309.273438 290.96875 C 303.175781 434.984375 225.835938 482.378906 188.425781 505.234375 C 184.011719 507.914062 180.175781 510.488281 177.128906 512.328125 C 160.683594 523.574219 153.90625 541.015625 159.945312 556.78125 C 165.199219 569.96875 179.859375 582 202.453125 582 C 205.527344 581.996094 208.601562 581.785156 211.648438 581.371094 C 251.738281 576.113281 338.800781 482.695312 361.867188 420.378906 C 375.101562 383.453125 381.71875 344.484375 381.414062 305.261719 C 396.585938 301.523438 410.449219 293.710938 421.503906 282.667969 L 551.492188 185.203125 C 553.277344 183.886719 595.050781 152.257812 578.027344 116.214844 Z M 59.066406 382.867188 C 56.597656 386.910156 54.441406 390.429688 52.5 393.375 C 46.773438 401.726562 39.46875 405.246094 32.953125 402.777344 C 26.4375 400.308594 19.503906 389.800781 21.65625 373.199219 C 25.335938 345.824219 107.773438 262.859375 169.089844 239.898438 C 202.820312 227.867188 238.363281 221.664062 274.175781 221.558594 C 274.242188 232.09375 276.238281 242.53125 280.058594 252.351562 C 132.785156 262.386719 81.449219 346.296875 59.066406 382.867188 Z M 413.777344 43.179688 C 413.777344 42.867188 436.265625 13.652344 456.707031 22.953125 L 475.988281 33.828125 L 400.222656 145.007812 C 387.921875 138.617188 374.253906 135.296875 360.394531 135.339844 C 354.625 135.34375 348.867188 135.925781 343.214844 137.074219 Z M 342.058594 413.023438 C 319.359375 474.394531 236.132812 556.78125 208.757812 560.457031 C 192.367188 562.613281 182.488281 556.359375 179.546875 549.160156 C 176.601562 541.960938 180.542969 535.34375 188.953125 529.617188 C 191.789062 527.671875 195.308594 525.570312 199.460938 523.046875 C 236.238281 500.664062 319.9375 449.488281 329.871094 302.109375 C 339.609375 305.871094 349.957031 307.824219 360.394531 307.886719 C 360.3125 343.722656 354.105469 379.277344 342.058594 413.023438 Z M 406.738281 267.746094 C 381.261719 293.238281 339.941406 293.25 314.449219 267.773438 C 288.953125 242.292969 288.945312 200.976562 314.421875 175.480469 C 339.898438 149.988281 381.21875 149.976562 406.710938 175.453125 C 406.722656 175.464844 406.730469 175.472656 406.738281 175.480469 C 432.214844 200.683594 432.4375 241.769531 407.238281 267.246094 C 407.070312 267.414062 406.90625 267.582031 406.738281 267.746094 Z M 539.039062 168.28125 L 445.09375 238.742188 C 448.988281 219.441406 446.1875 199.386719 437.160156 181.890625 L 548.285156 105.914062 L 559.214844 125.460938 C 568.464844 145.847656 539.039062 168.28125 539.039062 168.28125 Z M 539.039062 168.28125 " style=" stroke:none;fill-rule:nonzero;fill:rgb(0%,0%,0%);fill-opacity:1;" />
<path d="M 360.394531 187.878906 C 341.765625 187.878906 326.664062 202.988281 326.667969 221.617188 C 326.667969 240.25 341.773438 255.351562 360.40625 255.34375 C 379.039062 255.339844 394.136719 240.238281 394.132812 221.605469 C 394.132812 212.660156 390.574219 204.085938 384.25 197.757812 C 377.933594 191.417969 369.34375 187.867188 360.394531 187.878906 Z M 369.378906 230.652344 C 364.339844 235.472656 356.398438 235.472656 351.359375 230.652344 C 346.363281 225.675781 346.347656 217.589844 351.320312 212.59375 C 356.296875 207.59375 364.382812 207.578125 369.378906 212.554688 C 374.378906 217.53125 374.390625 225.617188 369.417969 230.613281 C 369.402344 230.628906 369.390625 230.640625 369.378906 230.652344 Z M 369.378906 230.652344 " style=" stroke:none;fill-rule:nonzero;fill:rgb(0%,0%,0%);fill-opacity:1;" />
</g>
</svg>