<?xml version="1.0" encoding="iso-8859-1"?>
<!-- Generator: Adobe Illustrator 19.0.0, SVG Export Plug-In . SVG Version: 6.00 Build 0)  -->
<svg version="1.1" id="Layer_1" xmlns="http://www.w3.org/2000/svg" xmlns:xlink="http://www.w3.org/1999/xlink" x="0px" y="0px"
	 viewBox="0 0 511.996 511.996" style="enable-background:new 0 0 511.996 511.996;" xml:space="preserve">
<g>
	<g>
		<path d="M501.324,165.333h-96.936l-4.516-4.523c-0.047-1.32-0.125-2.64-0.203-3.96l0.109,0.07c1.688,0.969,3.516,1.43,5.328,1.43
			c3.688,0,7.266-1.914,9.25-5.336c2.952-5.102,1.203-11.625-3.906-14.57l-15.891-9.172c-0.375-1.266-0.797-2.523-1.219-3.781
			l0.094,0.023c0.922,0.25,1.859,0.367,2.766,0.367c4.703,0,9.016-3.141,10.297-7.906c1.531-5.695-1.844-11.539-7.547-13.062
			l-17.672-4.742c-0.703-1.125-1.438-2.242-2.188-3.344h0.078c5.891,0,10.672-4.781,10.672-10.671
			c0-5.89-4.781-10.664-10.672-10.664H360.84c-0.984-0.906-1.969-1.797-2.953-2.672l0.078-0.023
			c5.688-1.523,9.078-7.367,7.547-13.062c-1.531-5.688-7.375-9.062-13.062-7.539l-17.64,4.727c-1.172-0.633-2.375-1.234-3.562-1.82
			l0.031-0.016c5.094-2.953,6.844-9.477,3.906-14.578c-2.953-5.102-9.469-6.844-14.578-3.898l-15.828,9.141
			c-1.312-0.297-2.609-0.57-3.938-0.82l0.062-0.055c4.156-4.164,4.156-10.914,0-15.085c-4.172-4.164-10.922-4.164-15.094,0
			l-12.984,12.992c-1.328,0.047-2.641,0.109-3.969,0.195l0.062-0.094c2.953-5.102,1.203-11.625-3.906-14.57
			c-5.094-2.945-11.625-1.195-14.562,3.906l-9.141,15.828c-1.281,0.391-2.547,0.805-3.812,1.234l0.016-0.055
			c1.531-5.688-1.859-11.531-7.547-13.062c-5.688-1.523-11.531,1.859-13.062,7.547l-4.734,17.68
			c-1.125,0.711-2.234,1.438-3.344,2.188v-0.086c0-5.891-4.781-10.664-10.672-10.664s-10.672,4.773-10.672,10.664v16.508h-5.359
			c-2.609-2.656-6.531-3.883-10.391-2.852c-1.922,0.516-3.562,1.531-4.859,2.852H32c-5.891,0-10.672,4.773-10.672,10.664v74.671
			H10.672C4.781,165.338,0,170.111,0,176.002v42.664c0,5.898,4.781,10.671,10.672,10.671h10.656v255.99h64v-106.66h341.34v106.656
			h64v-255.99h10.656c5.891,0,10.672-4.773,10.672-10.671v-42.664C511.996,170.107,507.215,165.333,501.324,165.333z
			 M226.342,77.756c0.266-0.141,0.516-0.289,0.766-0.453c7.422-4.25,15.344-7.523,23.594-9.758c0.25-0.055,0.516-0.125,0.766-0.195
			c8.344-2.195,17.031-3.328,25.891-3.328c8.75,0,17.344,1.109,25.609,3.25c0.438,0.148,0.891,0.266,1.344,0.359
			c8.078,2.211,15.812,5.422,23.094,9.562c0.375,0.258,0.781,0.484,1.188,0.695c7.359,4.328,14.219,9.617,20.406,15.812
			c6.358,6.359,11.702,13.367,16.015,20.804c0.062,0.109,0.125,0.227,0.188,0.336c8.953,15.57,13.406,33.031,13.406,50.492h-58.64
			c0-0.016,0-0.023,0-0.039c0-23.523-19.141-42.664-42.672-42.664V90.662c0-5.891-4.781-10.664-10.672-10.664h-43.921
			C223.905,79.225,225.107,78.475,226.342,77.756z M298.623,165.294c0,0.016,0,0.023,0,0.039h-21.328v-21.374
			C289.061,143.959,298.623,153.529,298.623,165.294z M42.671,101.334h72.765c-0.578,1.891-1.344,3.883-2.344,5.859
			c-5.25,10.414-14.453,15.469-28.14,15.469H42.671V101.334z M42.671,143.998h42.281c27.671,0,40.937-14.789,47.187-27.195
			c2.781-5.523,4.391-10.977,5.297-15.469h118.53v32h-63.968c-5.891,0-10.672,4.773-10.672,10.664
			c0,5.891,4.781,10.664,10.672,10.664h63.968v10.671H42.671V143.998z M63.999,463.995H42.671v-10.672h21.328V463.995z
			 M63.999,431.995H42.671V229.333h21.328V431.995z M426.668,357.32H85.328V229.333h83.733l4.297,1.148
			c0.703,1.133,1.438,2.25,2.188,3.359h-0.062c-5.891,0-10.656,4.773-10.656,10.664c0,5.898,4.766,10.672,10.656,10.672h18.344
			c0.969,0.906,1.953,1.797,2.953,2.664l-0.094,0.023c-5.688,1.523-9.062,7.375-7.531,13.062c1.266,4.758,5.578,7.914,10.297,7.914
			c0.906,0,1.844-0.125,2.766-0.375l17.609-4.719c1.172,0.641,2.375,1.234,3.578,1.828h-0.016
			c-5.109,2.953-6.844,9.469-3.906,14.576c1.984,3.422,5.562,5.328,9.25,5.328c1.812,0,3.641-0.453,5.328-1.422l15.797-9.123
			c1.297,0.297,2.609,0.578,3.922,0.828l-0.016,0.016c-4.172,4.17-4.172,10.92,0,15.092c2.078,2.078,4.812,3.125,7.547,3.125
			c2.719,0,5.453-1.047,7.531-3.125l12.953-12.951c1.328-0.047,2.656-0.109,3.984-0.188l-0.031,0.047
			c-2.953,5.107-1.203,11.623,3.906,14.576c1.672,0.969,3.5,1.422,5.312,1.422c3.688,0,7.281-1.906,9.25-5.328l9.109-15.764
			c1.281-0.391,2.547-0.812,3.828-1.25c-1.531,5.688,1.844,11.529,7.531,13.061c0.938,0.25,1.859,0.359,2.781,0.359
			c4.703,0,9.016-3.141,10.281-7.904l4.719-17.602c1.141-0.711,2.266-1.445,3.375-2.195v0.023c0,5.883,4.781,10.664,10.671,10.664
			c5.891,0,10.656-4.781,10.656-10.664v-18.297c0.922-0.984,1.812-1.969,2.688-2.969l0.016,0.062
			c1.266,4.766,5.578,7.906,10.297,7.906c0.906,0,1.828-0.117,2.766-0.367c5.688-1.523,9.062-7.375,7.531-13.062l-2.969-11.117
			h39.171V357.32z M198.78,229.333h157.139c-2.078,2.539-4.265,5-6.624,7.375c-0.219,0.195-0.422,0.406-0.625,0.617
			c-6,5.953-12.625,11.07-19.719,15.281c-0.672,0.305-1.312,0.68-1.922,1.109c-7.062,3.992-14.578,7.102-22.406,9.273
			c-0.719,0.117-1.422,0.305-2.109,0.562c-8.031,2.039-16.375,3.109-24.875,3.133c-0.219-0.008-0.438-0.008-0.641-0.008
			c-8.547-0.023-16.938-1.109-25-3.18c-0.625-0.227-1.281-0.398-1.938-0.508c-7.891-2.195-15.453-5.336-22.578-9.375
			c-0.5-0.352-1.031-0.656-1.578-0.922c-7.281-4.305-14.062-9.547-20.203-15.688C203.248,234.552,200.936,231.989,198.78,229.333z
			 M469.324,463.995h-21.328v-10.672h21.328V463.995z M469.324,431.995h-21.328V229.333h21.328V431.995z M490.668,207.997h-64
			H85.328h-64v-21.336H32h234.623h224.045V207.997z"/>
	</g>
</g>
<g>
</g>
<g>
</g>
<g>
</g>
<g>
</g>
<g>
</g>
<g>
</g>
<g>
</g>
<g>
</g>
<g>
</g>
<g>
</g>
<g>
</g>
<g>
</g>
<g>
</g>
<g>
</g>
<g>
</g>
</svg>
