<?xml version="1.0" encoding="iso-8859-1"?>
<!-- Generator: Adobe Illustrator 19.0.0, SVG Export Plug-In . SVG Version: 6.00 Build 0)  -->
<svg version="1.1" id="Capa_1" xmlns="http://www.w3.org/2000/svg" xmlns:xlink="http://www.w3.org/1999/xlink" x="0px" y="0px"
	 viewBox="0 0 512.255 512.255" style="enable-background:new 0 0 512.255 512.255;" xml:space="preserve">
<g>
	<g>
		<g>
			<path d="M510.046,303.776c-7.342-28.173-32.804-47.819-61.918-47.776c-29.095,0.109-54.454,19.829-61.728,48h-50.272V152.416
				L149.84,0H83.488l58.256,94.64l27.2-16.784l-25.808-42l160.992,131.728V304H167.712L36,143.008l190.496,117.248l33.888-33.888
				l-41.056-66.736l-27.2,16.768l24.832,40.352L0.128,83.36v66.352L152.544,336h151.584v50.272
				c-34.224,8.837-54.804,43.744-45.968,77.968c8.837,34.224,43.744,54.804,77.968,45.968c34.224-8.837,54.804-43.744,45.968-77.968
				c-5.821-22.543-23.425-40.147-45.968-45.968V336H386.4c8.898,34.144,43.791,54.609,77.935,45.711S518.945,337.92,510.046,303.776
				z M352.128,448c0,17.673-14.327,32-32,32c-17.673,0-32-14.327-32-32c0-17.673,14.327-32,32-32
				C337.802,416,352.128,430.327,352.128,448z M448.128,352c-17.673,0-32-14.327-32-32c0-17.673,14.327-32,32-32
				c17.673,0,32,14.327,32,32C480.128,337.673,465.802,352,448.128,352z"/>
			<rect x="164.509" y="111.125" transform="matrix(0.8515 -0.5244 0.5244 0.8515 -39.8534 113.5332)" width="32" height="32"/>
		</g>
	</g>
</g>
<g>
</g>
<g>
</g>
<g>
</g>
<g>
</g>
<g>
</g>
<g>
</g>
<g>
</g>
<g>
</g>
<g>
</g>
<g>
</g>
<g>
</g>
<g>
</g>
<g>
</g>
<g>
</g>
<g>
</g>
</svg>
