<?xml version="1.0" encoding="iso-8859-1"?>
<!-- Generator: Adobe Illustrator 19.0.0, SVG Export Plug-In . SVG Version: 6.00 Build 0)  -->
<svg version="1.1" id="Capa_1" xmlns="http://www.w3.org/2000/svg" xmlns:xlink="http://www.w3.org/1999/xlink" x="0px" y="0px"
	 viewBox="0 0 371.136 371.136" style="enable-background:new 0 0 371.136 371.136;" xml:space="preserve">
<g>
	<g>
		<g>
			<path d="M185.628,137.197c-12.848-0.011-25.171,5.099-34.24,14.2c-9.083,9.089-14.182,21.415-14.175,34.264
				c0.013,26.753,21.712,48.429,48.464,48.415c26.753-0.013,48.429-21.712,48.415-48.464
				C234.079,158.86,212.38,137.184,185.628,137.197z M212.063,212.072c-14.58,14.6-38.235,14.615-52.835,0.035
				c-14.6-14.58-14.615-38.235-0.035-52.835s38.235-14.615,52.835-0.035c7.02,6.992,10.964,16.492,10.96,26.4
				C222.997,195.549,219.067,205.059,212.063,212.072z"/>
			<path d="M370.188,211.157c0.831-1.237,1.127-2.758,0.82-4.217c-0.629-2.983-3.557-4.892-6.54-4.263
				c-6.571,1.505-13.265,2.416-20,2.72c3.114-2.056,5.974-4.473,8.52-7.2c7.6-8,13.4-19.52,17.8-36
				c0.396-1.405,0.22-2.91-0.491-4.185c-1.484-2.663-4.846-3.619-7.509-2.135c-5.989,3.166-12.255,5.776-18.72,7.8
				c2.472-2.793,4.607-5.867,6.36-9.16c5.4-9.76,8-22.36,8-39.44c-0.027-1.319-0.526-2.585-1.406-3.568
				c-2.033-2.272-5.523-2.465-7.794-0.432c-4.948,4.596-10.303,8.733-16,12.36c1.66-3.334,2.922-6.851,3.76-10.48
				c2.52-10.64,1.8-23.52-2.64-40c-0.356-1.313-1.184-2.449-2.325-3.189c-2.558-1.658-5.976-0.929-7.635,1.629
				c-3.602,5.693-7.712,11.048-12.28,16c0.738-3.645,1.047-7.363,0.92-11.08c-0.36-11.08-4.44-23.28-12.96-38.08
				c-0.687-1.191-1.793-2.082-3.103-2.5c-2.904-0.927-6.01,0.676-6.937,3.58c-1.99,6.459-4.56,12.724-7.68,18.72
				c-0.22-3.718-0.878-7.397-1.96-10.96c-3.2-10.6-10.36-21.44-22.36-33.44c-0.956-0.949-2.227-1.516-3.572-1.594
				c-3.044-0.175-5.653,2.15-5.828,5.194c-0.258,6.732-1.128,13.426-2.6,20c-1.182-3.492-2.766-6.834-4.72-9.96
				c-5.8-9.4-15.4-17.92-30.08-26.44c-1.216-0.759-2.679-1.015-4.08-0.715c-2.981,0.639-4.879,3.574-4.24,6.555
				c1.507,6.571,2.417,13.265,2.72,20c-2.094-3.12-4.551-5.98-7.32-8.52c-8-7.6-19.52-13.4-36-17.8l-0.12,0.24
				c-1.405-0.396-2.91-0.22-4.185,0.491c-2.663,1.484-3.619,4.846-2.135,7.509c3.164,5.99,5.775,12.256,7.8,18.72
				c-2.793-2.472-5.868-4.607-9.16-6.36c-9.76-5.4-22.36-8-39.44-8c-1.319,0.027-2.585,0.526-3.568,1.406
				c-2.272,2.033-2.465,5.523-0.432,7.794c4.596,4.948,8.733,10.303,12.36,16c-3.332-1.674-6.849-2.95-10.48-3.8
				c-10.64-2.52-23.48-1.76-40,2.64c-1.313,0.356-2.449,1.184-3.189,2.325c-1.658,2.558-0.929,5.976,1.629,7.635
				c5.692,3.604,11.047,7.714,16,12.28c-3.645-0.738-7.363-1.047-11.08-0.92c-11,0.32-23.16,4.36-37.84,12.8
				c-1.297,0.669-2.276,1.825-2.723,3.214c-0.934,2.902,0.661,6.012,3.563,6.946c6.46,2.003,12.726,4.587,18.72,7.72
				c-3.62,0.215-7.204,0.846-10.68,1.88h-0.28c-10.6,3.2-21.44,10.36-33.44,22.36c-0.949,0.956-1.516,2.227-1.594,3.572
				c-0.175,3.044,2.15,5.653,5.194,5.828c6.732,0.259,13.426,1.13,20,2.6c-3.492,1.182-6.834,2.766-9.96,4.72
				c-9.36,5.92-17.84,15.32-26.32,29.92c-0.831,1.237-1.127,2.758-0.82,4.217c0.629,2.983,3.557,4.892,6.54,4.263
				c6.571-1.507,13.265-2.417,20-2.72c-2.948,2.098-5.645,4.527-8.04,7.24c-7.6,8-13.4,19.52-17.8,36
				c-0.396,1.405-0.22,2.91,0.491,4.185c1.484,2.663,4.846,3.619,7.509,2.135c5.989-3.165,12.255-5.776,18.72-7.8
				c-2.472,2.794-4.606,5.868-6.36,9.16c-5.4,9.76-8,22.36-8,39.44c0.027,1.319,0.526,2.585,1.406,3.568
				c2.033,2.272,5.523,2.465,7.794,0.432c4.948-4.596,10.303-8.733,16-12.36c-1.675,3.332-2.95,6.849-3.8,10.48
				c-2.56,10.64-1.8,23.52,2.64,40c0.356,1.313,1.184,2.449,2.325,3.189c2.558,1.658,5.976,0.929,7.635-1.629
				c3.604-5.692,7.714-11.047,12.28-16c-0.743,3.658-1.051,7.39-0.92,11.12c0.36,11.08,4.44,23.28,12.96,38.08
				c0.687,1.191,1.793,2.082,3.103,2.5c2.904,0.927,6.01-0.676,6.937-3.58c1.988-6.46,4.558-12.725,7.68-18.72
				c0.214,3.62,0.845,7.204,1.88,10.68v0.28c3.2,10.6,10.36,21.44,22.36,33.44c0.965,0.957,2.25,1.525,3.608,1.594
				c3.045,0.154,5.638-2.189,5.792-5.234c0.259-6.732,1.129-13.426,2.6-20c1.175,3.52,2.759,6.89,4.72,10.04
				c5.92,9.36,15.32,17.84,29.92,26.32c1.237,0.831,2.758,1.127,4.217,0.82c2.983-0.629,4.892-3.557,4.263-6.54
				c-1.505-6.572-2.415-13.265-2.72-20c2.055,3.114,4.472,5.974,7.2,8.52c8,7.6,19.52,13.4,36,17.8
				c1.405,0.396,2.91,0.22,4.185-0.491c2.663-1.484,3.619-4.846,2.135-7.509c-3.164-5.99-5.775-12.256-7.8-18.72
				c2.794,2.472,5.868,4.606,9.16,6.36c9.76,5.4,22.36,8,39.44,8c1.319-0.027,2.585-0.526,3.568-1.406
				c2.272-2.033,2.465-5.523,0.432-7.794c-4.596-4.948-8.733-10.304-12.36-16c3.334,1.66,6.851,2.922,10.48,3.76
				c10.64,2.56,23.52,1.8,40-2.64c1.313-0.356,2.449-1.184,3.189-2.325c1.658-2.558,0.929-5.976-1.629-7.635
				c-5.693-3.603-11.048-7.713-16-12.28c3.645,0.738,7.363,1.047,11.08,0.92c11.08-0.36,23.28-4.44,38.08-12.96
				c1.191-0.687,2.082-1.793,2.5-3.103c0.927-2.904-0.676-6.01-3.58-6.937c-6.459-1.99-12.724-4.56-18.72-7.68
				c3.718-0.221,7.396-0.879,10.96-1.96c10.6-3.2,21.44-10.36,33.44-22.36c1.209-1.077,1.884-2.631,1.846-4.249
				c-0.071-3.048-2.599-5.461-5.646-5.391c-6.732-0.259-13.426-1.129-20-2.6c3.519-1.176,6.889-2.76,10.04-4.72
				C353.228,235.157,361.708,225.757,370.188,211.157z M312.828,237.637c-1.724,0.025-3.337,0.853-4.362,2.24
				c-1.811,2.452-1.291,5.909,1.162,7.72c5.58,3.646,11.674,6.437,18.08,8.28c4.291,1.201,8.662,2.096,13.08,2.68
				c-5.763,5.037-12.465,8.884-19.72,11.32c-8.57,2.411-17.689,1.99-26-1.2c-1.909-0.648-4.02-0.203-5.506,1.161
				c-2.246,2.061-2.396,5.553-0.334,7.799c4.504,5.057,9.75,9.4,15.56,12.88c3.853,2.281,7.863,4.286,12,6
				c-6.889,3.382-14.38,5.367-22.04,5.84c-8.913,0.075-17.611-2.731-24.8-8c-1.786-1.305-4.178-1.418-6.079-0.286
				c-2.62,1.559-3.48,4.947-1.921,7.566c3.079,5.883,7.015,11.275,11.68,16c3.131,3.082,6.472,5.942,10,8.56
				c-7.526,1.503-15.274,1.503-22.8,0c-8.629-2.196-16.317-7.121-21.92-14.04c-1.312-1.468-3.307-2.125-5.236-1.726
				c-2.985,0.619-4.903,3.541-4.284,6.526c1.42,6.562,3.82,12.873,7.12,18.72c2.187,3.889,4.646,7.618,7.36,11.16
				c-7.668-0.513-15.159-2.539-22.04-5.96c-7.747-4.364-13.877-11.112-17.48-19.24c-0.843-2.238-3.031-3.679-5.421-3.569
				c-3.045,0.141-5.4,2.724-5.259,5.769c-0.312,6.665,0.376,13.339,2.04,19.8c1.113,4.321,2.529,8.559,4.24,12.68
				c-7.264-2.475-13.966-6.363-19.72-11.44c-6.388-6.211-10.597-14.321-12-23.12c-0.405-1.92-1.799-3.481-3.662-4.1
				c-2.893-0.961-6.018,0.606-6.978,3.5c-2.057,6.401-3.135,13.077-3.2,19.8c-0.047,4.467,0.22,8.931,0.8,13.36
				c-6.329-4.235-11.765-9.671-16-16c-4.55-7.673-6.5-16.609-5.56-25.48c-0.025-1.724-0.853-3.337-2.24-4.362
				c-2.453-1.811-5.909-1.291-7.72,1.162c-3.682,5.599-6.501,11.721-8.36,18.16c-1.201,4.291-2.096,8.662-2.68,13.08
				c-5.039-5.776-8.886-12.492-11.32-19.76v-0.2c-2.333-8.517-1.885-17.556,1.28-25.8c0.648-1.91,0.203-4.02-1.161-5.506
				c-2.061-2.246-5.553-2.396-7.799-0.334c-5.057,4.504-9.4,9.751-12.88,15.56c-2.281,3.853-4.286,7.863-6,12
				c-3.382-6.889-5.367-14.38-5.84-22.04c-0.075-8.913,2.731-17.611,8-24.8c1.305-1.786,1.418-4.178,0.286-6.079
				c-1.559-2.62-4.947-3.48-7.566-1.921c-5.881,3.066-11.273,6.989-16,11.64c-3.082,3.131-5.942,6.472-8.56,10
				c-1.504-7.526-1.504-15.274,0-22.8c2.196-8.628,7.121-16.317,14.04-21.92c1.468-1.313,2.125-3.308,1.726-5.236
				c-0.619-2.985-3.541-4.903-6.526-4.284c-6.562,1.42-12.873,3.82-18.72,7.12c-3.889,2.187-7.618,4.647-11.16,7.36
				c0.513-7.668,2.539-15.159,5.96-22.04c4.366-7.745,11.113-13.875,19.24-17.48c2.238-0.843,3.679-3.031,3.569-5.421
				c-0.141-3.045-2.724-5.4-5.769-5.259c-6.665-0.311-13.339,0.376-19.8,2.04c-4.322,1.112-8.559,2.529-12.68,4.24
				c2.475-7.264,6.363-13.966,11.44-19.72c6.211-6.388,14.321-10.597,23.12-12c1.92-0.405,3.481-1.799,4.1-3.662
				c0.961-2.893-0.606-6.018-3.5-6.978c-6.401-2.056-13.077-3.135-19.8-3.2c-4.467-0.047-8.931,0.221-13.36,0.8
				c4.235-6.329,9.671-11.765,16-16c7.673-4.55,16.609-6.5,25.48-5.56c1.724-0.025,3.337-0.853,4.362-2.24
				c1.811-2.452,1.291-5.909-1.162-7.72c-5.661-3.626-11.838-6.377-18.32-8.16c-4.291-1.202-8.662-2.097-13.08-2.68
				c5.776-5.039,12.492-8.886,19.76-11.32h0.2c8.517-2.333,17.556-1.885,25.8,1.28c2,0.674,4.209,0.149,5.692-1.354
				c2.141-2.17,2.118-5.665-0.052-7.806c-4.396-5.028-9.519-9.369-15.2-12.88c-3.853-2.281-7.863-4.286-12-6
				c6.89-3.381,14.38-5.366,22.04-5.84c8.913-0.075,17.611,2.731,24.8,8c1.786,1.305,4.178,1.418,6.079,0.286
				c2.62-1.559,3.48-4.947,1.921-7.566c-3.066-5.881-6.989-11.273-11.64-16c-3.128-3.122-6.469-6.022-10-8.68
				c7.526-1.504,15.274-1.504,22.8,0c8.633,2.209,16.321,7.148,21.92,14.08c1.313,1.468,3.307,2.125,5.236,1.726
				c2.985-0.619,4.903-3.541,4.284-6.526c-1.42-6.562-3.82-12.873-7.12-18.72c-2.188-3.889-4.647-7.618-7.36-11.16
				c7.668,0.513,15.159,2.539,22.04,5.96c7.745,4.366,13.875,11.113,17.48,19.24c0.909,1.864,2.787,3.061,4.86,3.098
				c3.048,0.056,5.564-2.37,5.62-5.418c0.311-6.665-0.377-13.339-2.04-19.8c-1.113-4.321-2.53-8.559-4.24-12.68
				c7.264,2.475,13.966,6.363,19.72,11.44c6.492,6.225,10.776,14.399,12.2,23.28c0.405,1.92,1.799,3.481,3.662,4.1
				c2.893,0.961,6.018-0.606,6.978-3.5c2.056-6.402,3.135-13.077,3.2-19.8c0.045-4.453-0.222-8.904-0.8-13.32
				c6.329,4.234,11.766,9.671,16,16c4.55,7.673,6.5,16.609,5.56,25.48c0.025,1.724,0.853,3.337,2.24,4.362
				c2.452,1.811,5.909,1.291,7.72-1.162c3.598-5.666,6.322-11.842,8.08-18.32c1.201-4.291,2.096-8.662,2.68-13.08
				c5.039,5.776,8.886,12.492,11.32,19.76c2.411,8.57,1.99,17.689-1.2,26c-0.674,2-0.149,4.209,1.354,5.692
				c2.17,2.141,5.665,2.118,7.806-0.052c5.027-4.396,9.369-9.519,12.88-15.2c2.281-3.853,4.286-7.863,6-12
				c3.381,6.89,5.366,14.38,5.84,22.04c0.075,8.913-2.731,17.611-8,24.8c-1.305,1.786-1.418,4.178-0.286,6.079
				c1.559,2.62,4.947,3.48,7.566,1.921c5.881-3.065,11.273-6.988,16-11.64c3.081-3.131,5.941-6.473,8.56-10
				c1.503,7.526,1.503,15.274,0,22.8c-2.196,8.628-7.121,16.317-14.04,21.92c-1.468,1.313-2.125,3.308-1.726,5.236
				c0.619,2.985,3.541,4.903,6.526,4.284c6.562-1.419,12.873-3.819,18.72-7.12c3.889-2.187,7.618-4.646,11.16-7.36
				c-0.514,7.668-2.54,15.158-5.96,22.04c-4.366,7.745-11.113,13.875-19.24,17.48c-2.238,0.843-3.679,3.031-3.569,5.421
				c0.141,3.045,2.723,5.4,5.769,5.259c6.665,0.311,13.339-0.377,19.8-2.04c4.322-1.112,8.559-2.529,12.68-4.24
				c-2.475,7.264-6.363,13.966-11.44,19.72c-6.211,6.388-14.321,10.597-23.12,12c-1.92,0.405-3.481,1.799-4.1,3.662
				c-0.961,2.893,0.606,6.018,3.5,6.978c6.401,2.056,13.077,3.135,19.8,3.2c4.467,0.047,8.931-0.221,13.36-0.8
				c-4.235,6.329-9.671,11.765-16,16C330.635,236.627,321.698,238.577,312.828,237.637z"/>
			<path d="M185.628,66.877c-31.51-0.052-61.741,12.457-84,34.76c-22.275,22.262-34.795,52.46-34.808,83.952
				c-0.026,65.589,53.123,118.781,118.712,118.808c65.589,0.027,118.782-53.123,118.808-118.712
				C304.366,120.096,251.217,66.904,185.628,66.877z M261.647,261.976c-42.062,42.073-110.266,42.081-152.339,0.019
				c-42.073-42.062-42.081-110.266-0.019-152.339c42.062-42.073,110.266-42.081,152.339-0.019c20.197,20.136,31.552,47.48,31.56,76
				C293.235,214.264,281.887,241.732,261.647,261.976z"/>
		</g>
	</g>
</g>
<g>
</g>
<g>
</g>
<g>
</g>
<g>
</g>
<g>
</g>
<g>
</g>
<g>
</g>
<g>
</g>
<g>
</g>
<g>
</g>
<g>
</g>
<g>
</g>
<g>
</g>
<g>
</g>
<g>
</g>
</svg>
